<svg width="16" height="17" viewBox="0 0 16 17" fill="none" xmlns="http://www.w3.org/2000/svg">
<g clip-path="url(#clip0_4203_177)">
<path d="M8.1368 4.68159C6.02166 4.68159 4.31558 6.38491 4.31558 8.49663C4.31558 10.6083 6.02166 12.3117 8.1368 12.3117C10.2519 12.3117 11.958 10.6083 11.958 8.49663C11.958 6.38491 10.2519 4.68159 8.1368 4.68159ZM8.1368 10.9769C6.76994 10.9769 5.65251 9.8646 5.65251 8.49663C5.65251 7.12866 6.76661 6.01636 8.1368 6.01636C9.50698 6.01636 10.6211 7.12866 10.6211 8.49663C10.6211 9.8646 9.50366 10.9769 8.1368 10.9769ZM13.0056 4.52554C13.0056 5.02026 12.6065 5.41538 12.1143 5.41538C11.6188 5.41538 11.223 5.01694 11.223 4.52554C11.223 4.03413 11.6221 3.63569 12.1143 3.63569C12.6065 3.63569 13.0056 4.03413 13.0056 4.52554ZM15.5365 5.42866C15.4799 4.23667 15.2072 3.18081 14.3326 2.31089C13.4612 1.44097 12.4037 1.1687 11.2097 1.10894C9.97923 1.03921 6.29104 1.03921 5.06053 1.10894C3.86994 1.16538 2.81236 1.43765 1.93771 2.30757C1.06305 3.17749 0.793669 4.23335 0.733807 5.42534C0.663967 6.65386 0.663967 10.3361 0.733807 11.5646C0.790343 12.7566 1.06305 13.8124 1.93771 14.6824C2.81236 15.5523 3.86661 15.8246 5.06053 15.8843C6.29104 15.9541 9.97923 15.9541 11.2097 15.8843C12.4037 15.8279 13.4612 15.5556 14.3326 14.6824C15.2039 13.8124 15.4766 12.7566 15.5365 11.5646C15.6063 10.3361 15.6063 6.65718 15.5365 5.42866ZM13.9468 12.8828C13.6874 13.5335 13.1852 14.0349 12.53 14.2972C11.549 14.6857 9.22097 14.596 8.1368 14.596C7.05262 14.596 4.72131 14.6824 3.74356 14.2972C3.09172 14.0382 2.58954 13.5369 2.32681 12.8828C1.93771 11.9033 2.0275 9.57905 2.0275 8.49663C2.0275 7.41421 1.94103 5.08667 2.32681 4.1105C2.58622 3.45972 3.0884 2.95835 3.74356 2.69604C4.72464 2.30757 7.05262 2.39722 8.1368 2.39722C9.22097 2.39722 11.5523 2.31089 12.53 2.69604C13.1819 2.95503 13.6841 3.4564 13.9468 4.1105C14.3359 5.08999 14.2461 7.41421 14.2461 8.49663C14.2461 9.57905 14.3359 11.9066 13.9468 12.8828Z" fill="black"/>
</g>
<defs>
<clipPath id="clip0_4203_177">
<rect width="14.8991" height="17" fill="white" transform="translate(0.68396)"/>
</clipPath>
</defs>
</svg>
