<svg width="17" height="16" viewBox="0 0 17 16" fill="none" xmlns="http://www.w3.org/2000/svg">
<g clip-path="url(#clip0_4203_181)">
<path d="M14.4181 4.741C14.4281 4.88313 14.4281 5.02529 14.4281 5.16741C14.4281 9.50241 11.1509 14.4973 5.16096 14.4973C3.31558 14.4973 1.60132 13.9593 0.159302 13.0253C0.421495 13.0557 0.673569 13.0659 0.94585 13.0659C2.46851 13.0659 3.8702 12.5481 4.98953 11.6649C3.5576 11.6344 2.3576 10.6903 1.94415 9.39075C2.14585 9.42119 2.34751 9.4415 2.5593 9.4415C2.85172 9.4415 3.14418 9.40088 3.41643 9.32985C1.92401 9.02525 0.80465 7.70547 0.80465 6.11157V6.07097C1.23825 6.31463 1.74249 6.46691 2.2769 6.48719C1.39959 5.89835 0.824826 4.89329 0.824826 3.75622C0.824826 3.1471 0.98614 2.58872 1.26851 2.10141C2.87187 4.09125 5.28195 5.39072 7.98443 5.53288C7.93403 5.28922 7.90376 5.03544 7.90376 4.78163C7.90376 2.9745 9.35586 1.50244 11.1609 1.50244C12.0987 1.50244 12.9457 1.89838 13.5407 2.53797C14.2768 2.39585 14.9827 2.12172 15.6079 1.7461C15.3659 2.50754 14.8516 3.14713 14.176 3.55319C14.8315 3.48216 15.4668 3.29938 16.0516 3.0456C15.608 3.69532 15.0533 4.27397 14.4181 4.741Z" fill="black"/>
</g>
<defs>
<clipPath id="clip0_4203_181">
<rect width="15.8924" height="16" fill="white" transform="translate(0.159302)"/>
</clipPath>
</defs>
</svg>
